HIERARCHY
ROOT Hips
{
  OFFSET 90.7885 88.945 -76.2838
  CHANNELS 6 Xposition Yposition Zposition Zrotation Xrotation Yrotation
  JOINT LeftUpLeg
  {
    OFFSET 8.64259 1.95398 -2.38835
    CHANNELS 3 Zrotation Xrotation Yrotation
    JOINT LeftLeg
    {
      OFFSET 43.7702 0 0
      CHANNELS 3 Zrotation Xrotation Yrotation
      JOINT LeftFoot
      {
        OFFSET 40.6238 0 0
        CHANNELS 3 Zrotation Xrotation Yrotation
        JOINT LeftToeBase
        {
          OFFSET 12.7242 0 0
          CHANNELS 3 Zrotation Xrotation Yrotation
          End Site
          {
            OFFSET 0 0 0
          }
        }
      }
    }
  }
  JOINT RightUpLeg
  {
    OFFSET -8.2249 1.95398 -2.59336
    CHANNELS 3 Zrotation Xrotation Yrotation
    JOINT RightLeg
    {
      OFFSET 43.5653 0 0
      CHANNELS 3 Zrotation Xrotation Yrotation
      JOINT RightFoot
      {
        OFFSET 40.6238 0 0
        CHANNELS 3 Zrotation Xrotation Yrotation
        JOINT RightToeBase
        {
          OFFSET 12.7242 0 0
          CHANNELS 3 Zrotation Xrotation Yrotation
          End Site
          {
            OFFSET 0 0 0
          }
        }
      }
    }
  }
  JOINT Spine
  {
    OFFSET 0.165834 0.87714 6.61349
    CHANNELS 3 Zrotation Xrotation Yrotation
    JOINT Spine1
    {
      OFFSET 7.38963 1.71661e-005 0
      CHANNELS 3 Zrotation Xrotation Yrotation
      JOINT Spine2
      {
        OFFSET 11.9445 1.14441e-005 0
        CHANNELS 3 Zrotation Xrotation Yrotation
        JOINT Spine3
        {
          OFFSET 14.7254 4.19617e-005 0
          CHANNELS 3 Zrotation Xrotation Yrotation
          JOINT Spine4
          {
            OFFSET 10.9679 0 0
            CHANNELS 3 Zrotation Xrotation Yrotation
            JOINT RightShoulder
            {
              OFFSET 2.46616 -1.6653 3.69651
              CHANNELS 3 Zrotation Xrotation Yrotation
              JOINT RightArm
              {
                OFFSET 13.0012 0 0
                CHANNELS 3 Zrotation Xrotation Yrotation
                JOINT RightForeArm
                {
                  OFFSET 28.7848 1.52588e-005 0
                  CHANNELS 3 Zrotation Xrotation Yrotation
                  JOINT RightHand
                  {
                    OFFSET 26.5688 1.52588e-005 0
                    CHANNELS 3 Zrotation Xrotation Yrotation
                    End Site
                    {
                      OFFSET 0 0 0
                    }
                  }
                }
              }
            }
            JOINT LeftShoulder
            {
              OFFSET 2.38034 -1.29275 -3.7523
              CHANNELS 3 Zrotation Xrotation Yrotation
              JOINT LeftArm
              {
                OFFSET 16.3182 6.10352e-005 0
                CHANNELS 3 Zrotation Xrotation Yrotation
                JOINT LeftForeArm
                {
                  OFFSET 27.0901 0 0
                  CHANNELS 3 Zrotation Xrotation Yrotation
                  JOINT LeftHand
                  {
                    OFFSET 24.5451 1.52588e-005 0
                    CHANNELS 3 Zrotation Xrotation Yrotation
                    End Site
                    {
                      OFFSET 0 0 0
                    }
                  }
                }
              }
            }
            JOINT Neck
            {
              OFFSET 5.0226 -0.0266342 0
              CHANNELS 3 Zrotation Xrotation Yrotation
              JOINT Head
              {
                OFFSET 6.69363 2.86102e-005 0
                CHANNELS 3 Zrotation Xrotation Yrotation
                End Site
                {
                  OFFSET 0 0 0
                }
              }
            }
          }
        }
      }
    }
  }
}
MOTION
Frames:	17
Frame Time:	0.0416667
-81.1586 89.704 -14.2239 86.8653 -15.3522 80.8368 -174.164 37.4 78.0294 -49.8262 24.8444 -3.84394 70.4649 4.99674 5.26774 18.2804 7.77204 -7.66745 168.494 -10.7127 94.9047 -62.9094 -8.18398 4.23956 69.6098 -5.03871 -1.47827 14.9165 -2.28359 6.54893 3.54554 8.61309 -88.2565 9.55242 7.85478 2.8573 -2.09703 7.97287 2.50697 -24.7528 6.63266 5.09254 -4.74015 6.63266 5.09256 90.7419 -12.5865 -113.89 1.91738 -18.5039 0.926691 -43.8538 -11.242 -76.818 -37.1798 0.178919 -14.1927 -86.5138 -49.3075 83.8477 -11.8024 29.5747 25.5175 37.6899 3.41186 -67.9854 6.14533 -0.49741 -9.84141 27.2834 -30.8918 -21.2002 -4.43792 -22.292 -2.02113 
-76.2842 88.5344 -9.21037 86.9468 -16.9409 80.1196 -174.641 36.0942 78.5508 -58.7076 20.4335 -1.34669 80.2594 9.18547 2.16436 12.9214 2.51628 -0.390626 165.733 -2.45558 92.0158 -81.2735 -0.872855 2.28113 73.2783 -7.44874 -2.85783 15.1438 -2.88453 7.59864 3.10841 8.65231 -88.1234 9.46845 7.04225 3.19005 -2.18652 7.17574 2.87583 -24.8011 5.75847 5.16223 -4.78848 5.75847 5.16221 89.1606 -17.5638 -114.638 7.62148 -20.2898 8.55871 -44.7252 -12.5501 -76.6976 -37.4203 -0.497099 -12.1255 -87.81 -51.0859 82.2006 -3.27416 30.4914 15.1354 37.0959 0.169953 -70.4964 6.2071 -0.550201 -10.4922 26.3554 -28.7685 -21.6824 -3.5023 -20.1648 -3.06083 
-71.5603 87.5753 -4.28995 87.8814 -18.075 77.6559 -174.941 30.9856 78.572 -60.1544 18.4634 -0.690513 85.2228 11.2402 0.821089 21.0798 2.81725 -2.31823 166.482 7.2865 88.7771 -97.1429 0.695508 -0.144814 79.1298 -10.436 -3.8323 11.4172 -2.20227 6.65456 2.48946 8.95498 -87.8508 8.85169 5.92226 3.857 -2.8107 6.08612 3.59221 -25.3689 4.49085 5.45797 -5.35622 4.49085 5.45797 88.4926 -20.5491 -114.404 16.0828 -21.4067 16.7265 -44.8516 -13.3579 -76.4202 -36.9628 -0.681764 -11.6553 -88.0485 -51.6611 81.9501 6.17534 27.8232 -1.00745 36.1811 -2.42984 -73.0269 9.98371 -0.682897 -9.8591 29.2787 -26.9291 -19.8679 -4.48797 -18.3003 -5.41702 
-66.6175 86.691 0.903395 88.0756 -19.0501 76.4282 -174.988 25.6924 80.5517 -60.6305 16.9433 -0.559943 91.0229 13.0991 -1.96615 24.1106 2.1396 -2.09601 171.962 17.1262 85.4819 -108.8 -3.52378 -1.23307 85.8626 -13.6336 -3.91297 5.16034 -2.24269 7.03069 1.8356 9.08121 -87.7123 8.60772 4.67546 4.22586 -3.06103 4.85675 4.01605 -25.5774 3.19133 5.43361 -5.56474 3.19135 5.43362 89.0264 -21.1602 -112.858 28.1416 -24.6159 24.91 -40.7174 -10.431 -74.6049 -37.9863 -0.206925 -11.8931 -87.6554 -48.3277 81.9342 9.6064 20.1337 -14.9756 34.9301 -4.3941 -76.3875 11.4174 -0.598251 -8.54317 30.9168 -24.6375 -19.227 -4.74849 -15.8982 -6.24944 
-61.7149 86.3594 6.64073 87.5193 -21.7533 78.2322 -173.378 19.5758 86.8166 -58.6247 16.5322 -0.832459 96.3443 13.9169 -6.31044 25.2235 1.43743 -1.36072 179.523 27.2506 85.2241 -114.76 -6.89907 -1.29673 88.4314 -15.3132 -5.82247 6.81772 -4.05138 9.69674 1.37893 8.97289 -87.9816 8.85436 3.64886 3.74985 -2.81639 3.81023 3.58572 -25.3285 2.35459 4.67171 -5.31582 2.35455 4.67169 90.8114 -19.7801 -109.499 42.4828 -29.6331 33.3365 -42.6714 -8.32744 -73.776 -33.1223 0.115586 -14.0444 -87.5034 -44.5806 81.4819 10.1223 10.0122 -23.5787 34.2781 -6.13906 -81.5248 10.4239 -0.888352 -11.4792 31.3818 -21.0641 -17.5081 -5.48222 -12.9176 -5.70892 
-56.4795 86.4594 12.4662 85.4541 -24.0265 79.4415 -171.665 14.0504 92.2043 -53.9231 18.9211 -1.23857 96.2612 14.4882 -4.80797 30.7769 1.13639 -2.10156 -173.401 38.6229 83.0439 -116.085 -4.49511 -1.26158 90.5289 -16.318 -5.66699 7.77004 -4.53451 10.4082 0.760387 8.57329 -88.2007 9.6806 2.32902 3.38655 -1.99239 2.47576 3.28088 -24.498 1.20445 3.92917 -4.4853 1.20444 3.92916 92.0422 -19.0766 -106.937 57.6697 -33.8525 43.8676 -45.6434 -6.75658 -72.2663 -31.9701 0.10862 -14.5833 -87.1974 -40.0058 81.0613 11.8325 0.774418 -29.1358 35.6212 -8.12027 -87.314 13.1623 -0.847617 -9.91608 30.1373 -16.9843 -17.6941 -6.63049 -9.04169 -4.27341 
-50.7068 87.2008 18.9222 84.3597 -25.268 81.3612 -170.677 7.50824 97.4511 -47.3494 22.475 -0.506491 90.9296 13.2561 -2.07831 38.0445 0.06699 -1.99592 -169.038 47.1101 81.6444 -112.088 0.595801 -1.56682 93.5822 -17.1283 -3.7131 5.23561 -2.17225 6.94806 -0.125613 8.23855 -88.5055 10.3817 0.434182 2.93022 -1.29243 0.562668 2.90828 -23.8012 -0.466158 2.9253 -3.78856 -0.466137 2.9253 92.9216 -17.1148 -105.714 71.4289 -34.2235 54.6778 -46.8458 -5.09983 -70.949 -32.6908 -0.0238776 -13.588 -85.8465 -32.2425 81.7998 11.1089 -7.55326 -30.4568 34.6379 -10.1646 -93.7069 11.3787 -0.922685 -11.2494 29.2019 -12.4374 -17.9898 -9.09669 -4.58694 -3.46757 
-44.4221 88.4289 25.5975 84.4716 -26.9746 83.7918 -169.501 -1.52878 101.261 -37.2242 24.278 0.782014 80.7674 9.78067 1.33584 49.8056 -1.17286 -2.67758 -166.505 52.3137 81.5164 -103.837 4.98263 -2.35731 95.4924 -16.9804 -1.67202 6.30096 -1.78739 6.33407 -1.01771 8.06826 -88.8554 10.7477 -1.49861 2.41478 -0.924791 -1.3909 2.47833 -23.4551 -2.15492 1.85297 -3.4425 -2.15495 1.85296 94.1543 -14.9656 -103.528 80.5256 -33.5607 63.1879 -44.9505 -2.26478 -69.3037 -30.5342 0.69201 -15.901 -84.3801 -23.3212 82.709 8.74793 -14.5969 -27.4097 32.7723 -11.3791 -100.488 13.0823 -1.0545 -11.4617 29.6872 -8.09111 -18.6916 -12.0267 -0.0270389 -1.92837 
-37.83 89.8686 32.4507 84.2072 -29.7799 86.5263 -167.49 -10.9281 104.688 -25.3156 26.3892 1.64295 65.5187 3.56437 7.13969 57.8449 -1.08962 -5.7453 -165.764 55.8656 83.7102 -92.6223 5.71626 -3.41904 93.5817 -15.4371 -0.333091 8.30389 -1.7312 6.1088 -1.69207 7.96556 -89.3592 10.9655 -3.07187 1.56688 -0.702947 -2.99994 1.70063 -23.2656 -3.40065 0.570353 -3.25292 -3.40064 0.57036 95.7754 -11.0171 -100.909 84.9344 -31.6401 68.2381 -46.9973 -1.90095 -68.1206 -28.1772 0.981651 -18.5569 -83.1725 -15.0587 83.3927 6.32513 -18.8724 -23.4263 30.2376 -12.06 -106.23 14.262 -1.0458 -10.9046 32.5078 -3.96888 -17.7079 -16.2815 3.98069 -0.864289 
-30.7828 91.4139 39.5581 82.982 -33.9705 89.3993 -166.291 -17.9473 106.892 -17.7333 22.7492 3.15981 54.174 -1.76178 5.57073 40.4335 3.10513 -8.16996 -167.161 57.2463 88.5899 -79.1125 -0.0609357 -4.36845 88.3615 -13.8312 -2.09381 9.36804 -0.682987 4.39364 -2.03172 7.91506 -89.9848 11.057 -4.03733 0.418975 -0.607791 -4.01498 0.596551 -23.1922 -3.97628 -0.815755 -3.17954 -3.97628 -0.815749 91.4077 -11.5991 -112.762 74.6947 -12.9635 66.6701 -44.5095 -2.88788 -72.2729 -28.9452 0.913107 -18.0968 -82.2824 -9.25318 84.1377 4.84942 -20.3187 -21.8096 28.0066 -12.1638 -109.371 13.8298 -1.03253 -10.9807 35.9047 -0.463655 -17.153 -20.5053 7.31886 1.36288 
-23.6996 92.3643 46.5551 80.5698 -37.8577 91.6032 -166.568 -20.2126 107.469 -19.5054 18.6747 4.8184 55.2076 -1.2754 3.69882 14.7804 3.28982 -1.49011 -170.931 57.344 94.2319 -65.3145 -6.966 -4.25149 83.6094 -12.0968 -2.16194 12.3107 -0.465652 3.69812 -2.09569 7.92762 -90.6564 11.0051 -4.47591 -0.877792 -0.658324 -4.5102 -0.679575 -23.243 -4.00491 -2.18432 -3.23031 -4.00491 -2.18434 94.6025 -11.6073 -103.901 72.6842 -18.4622 66.7541 -38.5765 -0.886322 -70.6649 -30.3712 2.15301 -20.4918 -82.0717 -2.90195 82.6643 0.207251 -20.5128 -20.7215 27.5559 -12.6078 -111.637 12.9422 -1.24675 -12.9756 39.1829 2.22405 -16.5287 -23.0157 9.68708 3.34113 
-16.9563 92.3215 52.9174 79.4525 -41.2441 92.1745 -167.784 -20.987 105.306 -27.7295 16.9657 4.91883 59.6439 1.02135 4.25154 18.9792 5.58003 -5.2528 -175.087 55.2453 97.6403 -53.7394 -13.7768 -3.20097 79.2345 -10.057 -1.94109 16.1396 0.381218 1.72844 -2.07948 8.01539 -91.0767 10.8111 -4.63759 -1.71129 -0.852473 -4.70838 -1.50516 -23.4291 -3.90883 -3.02731 -3.41643 -3.90883 -3.02731 91.9386 -13.7522 -109.99 63.8945 -8.28165 63.5118 -33.9055 -3.74626 -73.5001 -33.1218 2.37905 -19.815 -81.766 -1.08801 83.0487 -5.50888 -16.4236 -25.0204 29.4119 -13.8322 -110.799 11.049 -1.48027 -16.1489 39.8979 5.84831 -12.9779 -20.9991 11.5958 2.3089 
-10.4096 91.7582 58.9619 80.7688 -44.0003 92.2918 -168.629 -20.7443 101.719 -39.76 17.9475 3.95192 59.0563 0.713892 5.47689 27.272 5.22002 -7.14069 -178.464 51.137 98.8647 -47.1025 -15.9604 -1.98571 78.5228 -9.70493 -2.53383 15.4106 0.164862 2.21354 -2.0622 8.17212 -91.313 10.4844 -4.7102 -2.19137 -1.17955 -4.80205 -1.9816 -23.749 -3.83402 -3.50653 -3.73637 -3.83402 -3.50653 91.153 -17.7454 -109.768 56.0236 -5.76405 58.5266 -36.662 -5.80439 -76.7829 -32.2912 1.51414 -17.9187 -82.5415 -6.72884 82.4367 -8.07061 -7.58759 -29.3355 34.0182 -16.3762 -107.575 7.84264 -1.07707 -15.3093 38.7819 10.5991 -5.11801 -18.1223 12.6987 -1.34586 
-3.98228 90.8183 65.1266 83.0079 -46.6232 93.0295 -168.485 -17.6821 98.9023 -56.381 17.7324 3.11946 59.3077 0.51211 4.60511 28.6788 5.95003 -8.62839 178.739 45.9791 99.3738 -44.6104 -12.5564 -0.619118 78.3319 -9.48044 -1.94107 15.7733 -0.283773 2.95509 -1.95557 8.34406 -91.3557 10.1384 -4.51459 -2.3118 -1.5264 -4.61194 -2.11058 -24.0889 -3.61137 -3.56226 -4.07625 -3.61137 -3.56227 88.3086 -21.7108 -114.159 47.6076 -1.5568 51.1051 -36.5174 -8.53337 -80.2264 -32.6312 1.30352 -17.5611 -83.9987 -14.8218 81.2768 -9.74039 3.02706 -31.9599 37.8517 -17.3329 -102.271 4.60367 -0.780654 -15.6558 37.7296 13.0016 -1.84818 -17.7388 13.4764 -1.97076 
2.39447 89.7807 71.5341 85.706 -48.62 95.008 -166.039 -12.0684 98.937 -74.8558 17.0016 2.97224 60.2149 0.726296 5.81395 26.5126 6.5246 -8.71749 177.035 39.6966 98.9548 -43.4324 -9.24034 0.200334 75.6697 -8.05904 -0.68023 17.6961 -0.203251 2.63201 -1.72722 8.55868 -91.4858 9.7045 -4.11495 -2.62398 -1.96222 -4.22639 -2.44019 -24.5097 -3.13659 -3.73925 -4.49709 -3.13658 -3.73924 85.2888 -28.0405 -116.977 36.8737 0.575666 41.3904 -37.8781 -9.64274 -84.9045 -32.0691 1.01399 -17.2802 -86.2269 -25.6849 79.4503 -9.88185 12.5565 -32.9283 41.0822 -15.5886 -95.155 4.78354 -0.743183 -14.7717 37.0782 14.6528 1.53382 -17.6996 13.5365 -2.33004 
8.36742 88.8992 77.7503 86.0231 -51.1172 94.7815 -162.887 -2.67717 98.994 -92.1883 8.20879 3.34657 61.6812 1.50498 5.95508 27.0335 7.11479 -9.71348 175.287 37.4782 98.147 -48.4529 -8.93515 0.810559 71.0096 -5.59068 0.308709 18.8596 -1.17257 4.31763 -1.33797 8.59262 -91.5267 9.64113 -3.35684 -2.76742 -2.02813 -3.47535 -2.61699 -24.5592 -2.37054 -3.6478 -4.54657 -2.37053 -3.64779 85.1373 -30.7165 -115.876 31.5211 2.13074 27.0181 -36.2424 -7.52376 -89.1499 -31.3121 1.00328 -16.8993 -87.9193 -35.0854 78.6658 -13.404 20.211 -29.8762 43.5386 -11.347 -87.466 4.46335 -0.772448 -15.7676 36.3543 15.0537 3.57093 -16.6892 12.9276 -1.81085 
13.7874 87.2484 83.564 85.7924 -53.2268 94.8585 -159.642 8.36338 98.4913 -109.028 1.28801 5.26925 63.6511 2.30698 5.90371 26.218 6.21167 -8.18435 173.597 35.7265 98.2423 -56.8362 -10.4305 1.28169 81.8721 -10.65 1.0195 16.2286 -1.53224 5.15584 -0.856295 8.55447 -91.6794 9.72069 -2.46658 -3.13653 -1.95144 -2.60218 -3.02503 -24.4639 -1.41065 -3.73212 -4.45128 -1.41066 -3.73213 86.8421 -31.0604 -112.465 28.8917 3.48104 9.59377 -37.5718 -5.78777 -94.2869 -29.6807 0.59038 -16.029 -89.1934 -43.4002 78.5122 -19.4574 24.661 -19.4808 44.2072 -7.68092 -82.9528 3.18814 -0.69258 -16.7083 34.1702 15.4228 6.81045 -13.9934 11.9455 -1.89864 
